<?xml version="1.0" encoding="UTF-8"?>
<svg version="1.1" xmlns="http://www.w3.org/2000/svg" width="1024" height="1024">
<path d="M0 0 C337.92 0 675.84 0 1024 0 C1024 337.92 1024 675.84 1024 1024 C686.08 1024 348.16 1024 0 1024 C0 686.08 0 348.16 0 0 Z " fill="#1D293D" transform="translate(0,0)"/>
<path d="M0 0 C3.15317874 0.36975483 4.01314658 1.14089905 6.18164062 3.40893555 C7.13876953 4.39023438 7.13876953 4.39023438 8.11523438 5.39135742 C8.76621094 6.08422852 9.4171875 6.77709961 10.08789062 7.4909668 C10.73886719 8.16450195 11.38984375 8.83803711 12.06054688 9.53198242 C13.33406638 10.85052534 14.60284104 12.17367024 15.86645508 13.50170898 C18.06926923 15.80730655 20.32550896 18.05644936 22.58789062 20.3034668 C23.30589844 21.03307617 24.02390625 21.76268555 24.76367188 22.5144043 C25.46878906 23.22854492 26.17390625 23.94268555 26.90039062 24.6784668 C27.94646484 25.74194336 27.94646484 25.74194336 29.01367188 26.8269043 C31.06692016 28.80226001 33.14665315 30.6632669 35.30517578 32.51855469 C39.26453836 35.97339805 42.99707675 39.59853395 46.68554688 43.33862305 C47.64248695 44.30124306 47.64248695 44.30124306 48.61875916 45.28330994 C50.63178863 47.3084133 52.64150771 49.33675057 54.65039062 51.3659668 C57.30495969 54.04733358 59.96296396 56.72522746 62.62304688 59.40112305 C63.21803482 60.00440933 63.81302277 60.60769562 64.42604065 61.22926331 C67.89629074 64.71947433 71.46286294 67.95487043 75.30149841 71.03831482 C75.72600784 71.45581497 76.15051727 71.87331512 76.58789062 72.3034668 C76.58789062 72.9634668 76.58789062 73.6234668 76.58789062 74.3034668 C77.14476562 74.5097168 77.70164062 74.7159668 78.27539062 74.9284668 C80.84872201 76.45855573 82.31839417 78.31142132 84.15039062 80.6472168 C86.25956302 83.07735021 88.71705771 85.01146286 91.23242188 87.0065918 C91.67972656 87.43456055 92.12703125 87.8625293 92.58789062 88.3034668 C92.58789062 88.9634668 92.58789062 89.6234668 92.58789062 90.3034668 C93.22726562 90.5715918 93.86664062 90.8397168 94.52539062 91.1159668 C96.58789062 92.3034668 96.58789062 92.3034668 97.58789062 95.3034668 C98.57789063 95.6334668 99.56789063 95.9634668 100.58789062 96.3034668 C100.58789062 96.9634668 100.58789062 97.6234668 100.58789062 98.3034668 C101.16539062 98.5509668 101.74289062 98.7984668 102.33789062 99.0534668 C104.91729042 100.48646668 106.64910654 102.08771356 108.58789062 104.3034668 C108.58789062 104.9634668 108.58789062 105.6234668 108.58789062 106.3034668 C109.16539062 106.5509668 109.74289062 106.7984668 110.33789062 107.0534668 C112.91729042 108.48646668 114.64910654 110.08771356 116.58789062 112.3034668 C116.58789062 112.9634668 116.58789062 113.6234668 116.58789062 114.3034668 C117.45414063 114.6747168 117.45414063 114.6747168 118.33789062 115.0534668 C120.91729042 116.48646668 122.64910654 118.08771356 124.58789062 120.3034668 C124.58789062 120.9634668 124.58789062 121.6234668 124.58789062 122.3034668 C125.90789062 122.9634668 127.22789062 123.6234668 128.58789062 124.3034668 C128.58789062 124.9634668 128.58789062 125.6234668 128.58789062 126.3034668 C129.90789062 126.9634668 131.22789062 127.6234668 132.58789062 128.3034668 C132.58789062 128.9634668 132.58789062 129.6234668 132.58789062 130.3034668 C133.45414063 130.6437793 133.45414063 130.6437793 134.33789062 130.9909668 C137.29566089 132.71633278 138.6982058 134.43870383 140.58789062 137.3034668 C141.08846188 140.62216187 141.08846188 140.62216187 141.08909607 144.47680664 C141.09463047 145.18808905 141.10016486 145.89937145 141.10586697 146.63220787 C141.11945463 149.00996465 141.10451552 151.38666829 141.08959961 153.7644043 C141.09338349 155.47129766 141.09888411 157.17818796 141.10597229 158.8850708 C141.11993519 163.51732467 141.1087513 168.14920746 141.09226108 172.78144073 C141.07841143 177.62911776 141.08487056 182.47677322 141.08839417 187.32446289 C141.09109635 195.46531149 141.07761992 203.60601265 141.05444336 211.74682617 C141.02783357 221.15871384 141.0260865 230.57035499 141.03783172 239.98226738 C141.048611 249.036245 141.04242125 258.09013346 141.02827644 267.144104 C141.02251795 270.99727486 141.02259826 274.85038043 141.02734184 278.70355225 C141.03211423 283.24098996 141.0219991 287.77815775 141.00038719 292.31554413 C140.99482272 293.98082316 140.99435092 295.64612814 140.99934006 297.311409 C141.00529642 299.58461449 140.99278189 301.8569957 140.97557068 304.13012695 C140.97192584 306.03817612 140.97192584 306.03817612 140.96820736 307.98477173 C140.52471664 311.8547315 139.36158458 314.52977284 136.58789062 317.3034668 C134.90182996 317.42612646 133.21065677 317.47884011 131.52033997 317.50482178 C130.41128862 317.52396385 129.30223728 317.54310593 128.15957832 317.56282806 C126.92138281 317.57875252 125.68318729 317.59467697 124.4074707 317.61108398 C122.44185086 317.64131527 122.44185086 317.64131527 120.43652153 317.67215729 C116.75657872 317.72758489 113.07657188 317.77535548 109.39649558 317.82096958 C107.03087815 317.85051721 104.66528545 317.8816319 102.29969215 317.91304779 C60.61615319 318.45969521 18.92961674 318.52511966 -22.75696385 318.5422864 C-34.23296713 318.54710246 -45.7088564 318.56496009 -57.18482524 318.59336209 C-66.20705823 318.61490255 -75.22925856 318.6250599 -84.251517 318.62640262 C-89.58653561 318.62744627 -94.92144267 318.63327385 -100.25643349 318.65122223 C-105.20755614 318.66759224 -110.1584811 318.66991328 -115.10962105 318.66108322 C-116.92255432 318.66030979 -118.735498 318.66469554 -120.54840469 318.67454147 C-123.01353322 318.68715583 -125.4779471 318.68144532 -127.94306946 318.67095947 C-129.02357723 318.68304408 -129.02357723 318.68304408 -130.12591344 318.69537282 C-132.85051582 318.66809639 -134.95007856 318.56104057 -137.35595608 317.21980762 C-138.99636559 314.24336119 -138.78343781 311.65508075 -138.77960205 308.27452087 C-138.78450531 307.19473484 -138.78450531 307.19473484 -138.78950763 306.09313494 C-138.79680589 303.67467026 -138.78261495 301.25680684 -138.76855469 298.83837891 C-138.76934531 297.10721229 -138.77144179 295.37604584 -138.77474976 293.6448822 C-138.77989174 288.93837974 -138.7663329 284.23209524 -138.74922276 279.52562785 C-138.73421021 274.60714285 -138.73536135 269.68866094 -138.73455811 264.77015686 C-138.73086346 256.51063301 -138.71588555 248.25119217 -138.69335938 239.99169922 C-138.66447605 229.37943702 -138.65413565 218.76724166 -138.64967728 208.15494442 C-138.64570128 199.04422473 -138.6331991 189.93351966 -138.61933041 180.82281041 C-138.61522664 177.88777846 -138.61230345 174.95274703 -138.60953522 172.01771355 C-138.60465065 167.4122741 -138.5944615 162.80687541 -138.5800972 158.20145607 C-138.57556529 156.50749962 -138.57273343 154.81353769 -138.57168961 153.1195755 C-138.56995031 150.81481875 -138.56208444 148.51016482 -138.55255127 146.20542908 C-138.54957661 144.9132846 -138.54660194 143.62114012 -138.54353714 142.28983974 C-138.41210938 139.3034668 -138.41210938 139.3034668 -137.41210938 137.3034668 C-136.75210937 137.3034668 -136.09210938 137.3034668 -135.41210938 137.3034668 C-135.03478668 136.43767754 -135.03478668 136.43767754 -134.64984131 135.55439758 C-133.25167617 133.01170406 -131.670648 131.32847233 -129.60839844 129.28857422 C-128.82708557 128.51064011 -128.04577271 127.73270599 -127.24078369 126.93119812 C-125.97207428 125.68267815 -125.97207428 125.68267815 -124.67773438 124.40893555 C-123.80695251 123.54335526 -122.93617065 122.67777496 -122.03900146 121.78596497 C-119.25140125 119.01618361 -116.4572308 116.25315636 -113.66210938 113.4909668 C-110.88210769 110.73866877 -108.10360202 107.98490314 -105.32806396 105.22810364 C-103.60124376 103.51344232 -101.8717573 101.8014607 -100.13922119 100.09257507 C-95.66590605 95.65605807 -91.46148217 91.12896937 -87.41210938 86.3034668 C-86.19701239 85.18112531 -84.95491597 84.08533995 -83.66210938 83.0534668 C-81.30570765 81.16409965 -80.14537038 79.90335831 -78.41210938 77.3034668 C-77.75210938 77.3034668 -77.09210938 77.3034668 -76.41210938 77.3034668 C-76.19059708 76.75631012 -75.96908478 76.20915344 -75.74085999 75.64541626 C-73.99667355 72.57125286 -71.65155963 70.28841592 -69.15209961 67.83227539 C-68.61696747 67.29845749 -68.08183533 66.76463959 -67.53048706 66.21464539 C-65.76511518 64.45575135 -63.99287973 62.70393965 -62.22070312 60.9519043 C-60.9923361 59.72980883 -59.76448358 58.50719602 -58.53712463 57.28408813 C-55.30802416 54.06828138 -52.07340169 50.85809163 -48.8371582 47.6494751 C-43.65225908 42.50772508 -38.47409515 37.35921353 -33.29911995 32.20747757 C-31.48834843 30.40694978 -29.67421396 28.60986129 -27.85972595 26.81307983 C-26.75394475 25.71412438 -25.64827169 24.61506011 -24.54272461 23.51586914 C-24.03517136 23.01505325 -23.5276181 22.51423737 -23.00468445 21.99824524 C-20.37522129 19.40309133 -20.37522129 19.40309133 -18.41210938 16.3034668 C-17.75210938 16.3034668 -17.09210938 16.3034668 -16.41210938 16.3034668 C-16.41210938 15.6434668 -16.41210938 14.9834668 -16.41210938 14.3034668 C-14.53710938 12.1784668 -14.53710938 12.1784668 -12.41210938 10.3034668 C-11.75210938 10.3034668 -11.09210938 10.3034668 -10.41210938 10.3034668 C-10.41210938 9.6434668 -10.41210938 8.9834668 -10.41210938 8.3034668 C-9.75210938 8.3034668 -9.09210938 8.3034668 -8.41210938 8.3034668 C-8.16460937 7.7259668 -7.91710937 7.1484668 -7.66210938 6.5534668 C-5.75447136 3.11971837 -4.06949363 0.51198184 0 0 Z " fill="#FFFFFF" transform="translate(511.412109375,204.696533203125)"/>
<path d="M0 0 C3.01388073 1.35058114 5.1034677 2.85604775 7.42578125 5.1953125 C8.05806641 5.82953125 8.69035156 6.46375 9.34179688 7.1171875 C9.99212891 7.77976563 10.64246094 8.44234375 11.3125 9.125 C12.2705957 10.0840625 12.2705957 10.0840625 13.24804688 11.0625 C16.34901415 14.19174357 19.33112062 17.37359944 22.20800781 20.71020508 C26.12286585 25.20342941 30.2777306 29.4219572 34.49609375 33.62890625 C35.28846939 34.42223862 36.08084503 35.21557098 36.89723206 36.03294373 C38.56250283 37.69889081 40.22902029 39.36359256 41.89672852 41.02709961 C44.43034622 43.55536134 46.95858167 46.08891661 49.48632812 48.62304688 C51.11426283 50.2503207 52.74250775 51.87728425 54.37109375 53.50390625 C55.11717392 54.25201065 55.86325409 55.00011505 56.63194275 55.77088928 C59.98130838 59.10554173 63.35515762 62.35304317 66.94042969 65.43383789 C71.73123317 69.56654761 76.14057159 74.05297183 80.58203125 78.5546875 C82.41978249 80.40508636 84.25767761 82.25534233 86.09570312 84.10546875 C88.95480134 86.98818312 91.81134607 89.87340673 94.6652832 92.76123047 C97.44454184 95.57284888 100.23213308 98.37613816 103.01953125 101.1796875 C103.85635941 102.02997528 104.69318756 102.88026306 105.55537415 103.75631714 C111.38337344 109.60850079 117.55215757 114.84550974 124 120 C125 121 125 121 125.12304783 123.60620975 C125.12212604 124.77780864 125.12120424 125.94940752 125.12025452 127.1565094 C125.12153615 128.13171827 125.12153615 128.13171827 125.12284368 129.12662834 C125.12450026 131.3208558 125.11897425 133.51500802 125.11352539 135.70922852 C125.11324353 137.27585854 125.11340123 138.8424887 125.1139679 140.40911865 C125.11425592 144.67546377 125.10835843 148.94178102 125.10139394 153.20811963 C125.09516118 157.66177051 125.09455666 162.11542197 125.09336853 166.56907654 C125.09025498 175.00867443 125.08204128 183.44825944 125.07201904 191.88785166 C125.06085863 201.49349444 125.05534764 211.09913782 125.05032361 220.70478547 C125.03985868 240.46986578 125.02151291 260.23492841 125 280 C106.19 280 87.38 280 68 280 C68.05800781 270.89019531 68.11601563 261.78039062 68.17578125 252.39453125 C68.20132342 246.62955023 68.2255995 240.86461013 68.24414062 235.09960938 C68.27381817 225.94541431 68.30872121 216.79144922 68.37719727 207.63745117 C68.42704274 200.97084163 68.4592934 194.3044185 68.47044247 187.63762778 C68.47695948 184.10769459 68.49226815 180.5782947 68.52865028 177.04853249 C68.56894146 173.10753022 68.56994867 169.16704907 68.56762695 165.22583008 C68.58560333 164.05626266 68.60357971 162.88669525 68.62210083 161.6816864 C68.65927972 155.28825176 68.65927972 155.28825176 65.58308411 149.85543823 C64.73066635 149.24314362 63.8782486 148.630849 63 148 C61.77789488 146.76767135 60.55648604 145.53465161 59.3359375 144.30078125 C58.01567039 142.97130909 56.695357 141.64188288 55.375 140.3125 C54.70726562 139.63638672 54.03953125 138.96027344 53.3515625 138.26367188 C52.70703125 137.61591797 52.0625 136.96816406 51.3984375 136.30078125 C50.81755371 135.71466064 50.23666992 135.12854004 49.63818359 134.5246582 C47.87045506 132.79749173 47.87045506 132.79749173 45 131 C45 130.34 45 129.68 45 129 C44.42509827 128.75041534 43.85019653 128.50083069 43.25787354 128.24368286 C40.67571996 126.82137993 38.95168149 125.19188201 36.87402344 123.10107422 C36.07349548 122.3003952 35.27296753 121.49971619 34.44818115 120.67477417 C33.59387512 119.81014557 32.73956909 118.94551697 31.859375 118.0546875 C30.97719299 117.1696756 30.09501099 116.2846637 29.18609619 115.37283325 C26.84805457 113.02549869 24.51444126 110.67393215 22.18286133 108.32019043 C19.80003474 105.91686073 17.41149652 103.51922233 15.0234375 101.12109375 C10.34368138 96.41928533 5.66968133 91.71181336 1 87 C-4.89324379 89.82857482 -8.81140026 94.56843527 -13 99.5 C-17.19917876 104.3863171 -21.80906499 108.86145 -26.40625 113.36914062 C-29.54687572 116.46723704 -32.56837649 119.60345784 -35.4453125 122.94921875 C-39.20013202 127.3045139 -43.26566674 131.29471129 -47.375 135.3125 C-59.7322232 146.13322577 -59.7322232 146.13322577 -66.10559082 160.22807312 C-66.09717163 161.11662491 -66.08875244 162.0051767 -66.08007812 162.9206543 C-66.07423706 163.96639114 -66.068396 165.01212799 -66.06237793 166.08955383 C-66.05210571 167.26011826 -66.0418335 168.43068268 -66.03125 169.63671875 C-66.01977622 172.28566431 -66.01014637 174.93453973 -66.00390625 177.58349609 C-66.00204063 178.31101106 -66.00017502 179.03852602 -65.99825287 179.78808689 C-65.98218213 189.99080552 -66.1069366 200.19257282 -66.21875 210.39453125 C-66.22982788 211.42187252 -66.24090576 212.44921379 -66.25231934 213.50768661 C-66.32093886 219.86051203 -66.39185192 226.21330988 -66.46356201 232.56610107 C-66.5359487 239.01530616 -66.60591838 245.4645379 -66.67631531 251.91376495 C-66.78240595 261.60919774 -66.89147655 271.30459278 -67 281 C-85.81 281 -104.62 281 -124 281 C-124.04010881 256.30188652 -124.04010881 256.30188652 -124.04882812 245.40625 C-124.05470374 238.0999271 -124.06148435 230.79361721 -124.07543945 223.48730469 C-124.07737808 222.32124506 -124.07931671 221.15518543 -124.08131409 219.95379066 C-124.08570207 217.60244781 -124.09143141 215.25110708 -124.09849548 212.89977074 C-124.11183856 206.97079863 -124.08837358 201.04566217 -123.99560547 195.11734009 C-123.85372117 184.72304795 -123.80578359 174.53496423 -125.00818157 164.19665527 C-127.08621949 146.25770418 -128.15241924 129.83955415 -116.91835499 114.70299339 C-106.59012326 101.94549773 -94.53721768 90.82046496 -82.34861106 79.87579501 C-76.76418335 74.85265988 -71.32112469 69.68603325 -65.88455844 64.50392795 C-59.23556984 58.16759297 -52.5708875 51.85069275 -45.79428101 45.65072632 C-44.85287262 44.78898804 -43.91146423 43.92724976 -42.94152832 43.03939819 C-41.19756978 41.44822503 -39.45011284 39.86087292 -37.69827271 38.27838135 C-33.31363634 34.28294228 -29.24619382 30.18871398 -25.40973949 25.66137218 C-23.77759149 23.73789249 -22.04825564 21.94798656 -20.24609375 20.18359375 C-19.61896484 19.56419922 -18.99183594 18.94480469 -18.34570312 18.30664062 C-17.71599609 17.68982422 -17.08628906 17.07300781 -16.4375 16.4375 C-12.18383883 12.27038331 -8.10415455 8.0882141 -4.34399414 3.46508789 C-3 2 -3 2 0 0 Z " fill="#1D293D" transform="translate(512,226)"/>
<path d="M0 0 C85.55504769 0 85.55504769 0 106.3125 19.8125 C120.14013194 34.37140094 124.5647846 51.30063266 124.27734375 70.875 C123.64879164 87.83652551 115.00538181 103.63640018 102.8125 115.125 C74.46564822 139.21024738 35.99363037 134 1 134 C0.67 89.78 0.34 45.56 0 0 Z " fill="#FFFFFF" transform="translate(162,580)"/>
<path d="M0 0 C3.21611185 1.51494924 5.00400439 2.91271416 7.25 5.6875 C9.46642221 8.4251106 11.81280641 10.74096228 14.484375 13.01953125 C20.86250708 18.51540902 26.67124396 24.61513046 32.58203125 30.60253906 C38.0289675 36.11367617 43.45473372 41.59077495 49.37890625 46.59765625 C49.91386719 47.06042969 50.44882812 47.52320313 51 48 C51.52085552 48.42266081 52.04171104 48.84532162 52.57835007 49.28079033 C54.47944432 51.57979485 54.37242347 52.94812655 54.36749268 55.90969849 C54.37306183 56.92207581 54.37863098 57.93445313 54.3843689 58.97750854 C54.37515411 60.0872403 54.36593933 61.19697205 54.35644531 62.34033203 C54.35848969 63.50959229 54.36053406 64.67885254 54.36264038 65.88354492 C54.36565494 69.75845849 54.34715236 73.63294934 54.328125 77.5078125 C54.32506883 80.19156558 54.32309158 82.87529894 54.32244873 85.55905151 C54.31875617 91.18639612 54.30378742 96.81361875 54.28125 102.44091797 C54.25234776 109.67233877 54.24202426 116.90366146 54.2375679 124.13513374 C54.23402038 129.67679873 54.2238053 135.21844531 54.21169281 140.7600975 C54.20597598 143.42755357 54.20111704 146.09499688 54.19742584 148.76245499 C54.1905896 152.48116235 54.17697051 156.19977851 54.16113281 159.91845703 C54.16001495 161.03223724 54.15889709 162.14601746 54.15774536 163.29354858 C54.15203522 164.30028625 54.14632507 165.30702393 54.14044189 166.3442688 C54.13746723 167.22437181 54.13449257 168.10447483 54.13142776 169.01124763 C54 171 54 171 53 172 C48.77964095 172.24252825 44.5534618 172.22853321 40.3269043 172.24023438 C38.20646545 172.24991343 36.08700686 172.28091033 33.96679688 172.3125 C32.61719326 172.31903265 31.2675827 172.32428209 29.91796875 172.328125 C28.68844482 172.3374707 27.4589209 172.34681641 26.19213867 172.35644531 C22.79166227 171.97673628 21.37170616 171.4274806 19 169 C19 168.34 19 167.68 19 167 C18.34 167 17.68 167 17 167 C15.7734375 165.71484375 15.7734375 165.71484375 14.375 163.9375 C12.17341837 161.25911829 9.90510099 158.95468542 7.2578125 156.71875 C3.149028 153.17359317 -0.68919753 149.42321506 -4.5 145.5625 C-5.17998047 144.87873291 -5.85996094 144.19496582 -6.56054688 143.49047852 C-9.43225143 140.60262227 -12.29788438 137.70876925 -15.1640625 134.81542969 C-17.27392787 132.68734275 -19.38689645 130.56237083 -21.5 128.4375 C-22.45036133 127.47469116 -22.45036133 127.47469116 -23.41992188 126.49243164 C-27.22282124 122.66908121 -31.14822937 119.05293695 -35.23025513 115.52923584 C-37.20331374 113.82431668 -39.12440178 112.07176581 -41.02734375 110.2890625 C-41.99704102 109.38220703 -41.99704102 109.38220703 -42.98632812 108.45703125 C-43.9521582 107.55017578 -43.9521582 107.55017578 -44.9375 106.625 C-45.60845703 105.99722656 -46.27941406 105.36945313 -46.97070312 104.72265625 C-53.12118127 98.96396792 -53.12118127 98.96396792 -53.34414673 92.61282349 C-53.44193379 88.79451849 -53.51586705 84.97640212 -53.56982422 81.15722656 C-53.60628983 79.15323137 -53.6606627 77.14947332 -53.73388672 75.14648438 C-54.40882942 56.39738478 -54.40882942 56.39738478 -49.1796875 49.83984375 C-47.49739475 48.18045062 -45.76794667 46.56781983 -44 45 C-42.59193108 43.55911644 -41.18405026 42.11800458 -39.78604126 40.6673584 C-37.40065506 38.21337991 -34.94734427 35.82940674 -32.5 33.4375 C-30.99951068 31.96473501 -29.50060326 30.49043632 -28.0045166 29.01319885 C-26.669752 27.6960904 -25.33013594 26.38390372 -23.99023438 25.07202148 C-21.95597787 23.15951185 -21.95597787 23.15951185 -21 21 C-20.34 21 -19.68 21 -19 21 C-18.75072754 20.42475586 -18.50145508 19.84951172 -18.24462891 19.25683594 C-16.82126077 16.67589928 -15.18451214 14.95787763 -13.0859375 12.890625 C-12.32539063 12.13652344 -11.56484375 11.38242187 -10.78125 10.60546875 C-9.9871875 9.82816406 -9.193125 9.05085938 -8.375 8.25 C-7.17230469 7.06083984 -7.17230469 7.06083984 -5.9453125 5.84765625 C-3.96797154 3.89385507 -1.98611091 1.94487897 0 0 Z " fill="#1D293D" transform="translate(512,334)"/>
<path d="M0 0 C3.91319504 0.66156088 5.50411298 3.61909831 7.69921875 6.6640625 C8.17883057 7.30230957 8.65844238 7.94055664 9.15258789 8.59814453 C10.59843649 10.52706143 12.02386315 12.46998091 13.44921875 14.4140625 C14.92736178 16.37316859 16.40645647 18.33155719 17.88671875 20.2890625 C19.40856847 22.32997167 20.92932069 24.37169948 22.44921875 26.4140625 C30.46483843 37.14926743 38.56431473 47.81231464 46.765625 58.40625 C51.92643316 65.08894393 57.04489465 71.80366303 62.13671875 78.5390625 C63.06327271 79.75541382 63.06327271 79.75541382 64.00854492 80.99633789 C68.52231072 86.98755542 72.39088241 93.03667683 76.44921875 99.4140625 C76.44921875 67.4040625 76.44921875 35.3940625 76.44921875 2.4140625 C83.70921875 2.0840625 90.96921875 1.7540625 98.44921875 1.4140625 C98.44921875 45.3040625 98.44921875 89.1940625 98.44921875 134.4140625 C77.53996919 134.4140625 77.53996919 134.4140625 74.0078125 131.17578125 C73.30785156 130.16128906 72.60789062 129.14679688 71.88671875 128.1015625 C71.04231659 126.91750499 70.19721696 125.73394469 69.3515625 124.55078125 C68.89507324 123.89513184 68.43858398 123.23948242 67.96826172 122.56396484 C65.05719148 118.44392555 61.98679331 114.44117009 58.94921875 110.4140625 C57.64936547 108.67866558 56.34987974 106.94299327 55.05078125 105.20703125 C50.99728688 99.80272414 46.88309205 94.44774055 42.75195312 89.10253906 C37.96003476 82.89172433 33.20020243 76.65622045 28.44921875 70.4140625 C27.93568848 69.73939941 27.4221582 69.06473633 26.89306641 68.36962891 C21.05872149 60.68871101 15.32010265 52.94022717 9.69921875 45.1015625 C9.17320068 44.37775391 8.64718262 43.65394531 8.10522461 42.90820312 C7.62577393 42.23337891 7.14632324 41.55855469 6.65234375 40.86328125 C6.22598633 40.26862061 5.79962891 39.67395996 5.36035156 39.0612793 C4.44921875 37.4140625 4.44921875 37.4140625 4.44921875 34.4140625 C3.78921875 34.4140625 3.12921875 34.4140625 2.44921875 34.4140625 C2.77921875 35.0740625 3.10921875 35.7340625 3.44921875 36.4140625 C3.54278561 39.49598695 3.57493169 42.55519199 3.56274414 45.63720703 C3.56289017 46.593349 3.56303619 47.54949097 3.56318665 48.53460693 C3.56248815 51.70538577 3.55469865 54.87610638 3.546875 58.046875 C3.5450106 60.24120044 3.5435868 62.43552629 3.54258728 64.62985229 C3.53876385 70.41340274 3.52893503 76.1969282 3.5178833 81.98046875 C3.50766545 87.87890281 3.50308886 93.7773409 3.49804688 99.67578125 C3.48731263 111.25521933 3.47023828 122.83463884 3.44921875 134.4140625 C-0.02993066 134.44294064 -3.50904956 134.46081937 -6.98828125 134.4765625 C-7.98150391 134.48494141 -8.97472656 134.49332031 -9.99804688 134.50195312 C-10.94228516 134.50517578 -11.88652344 134.50839844 -12.859375 134.51171875 C-13.73392334 134.51695557 -14.60847168 134.52219238 -15.50952148 134.52758789 C-17.55078125 134.4140625 -17.55078125 134.4140625 -18.55078125 133.4140625 C-18.64694932 131.73114554 -18.67265816 130.04416689 -18.67103577 128.35850525 C-18.67241043 127.26329056 -18.6737851 126.16807587 -18.67520142 125.03967285 C-18.67160614 123.82767212 -18.66801086 122.61567139 -18.66430664 121.36694336 C-18.66445267 120.09883316 -18.66459869 118.83072296 -18.66474915 117.52418518 C-18.6650371 114.03673828 -18.6591407 110.54932549 -18.65217519 107.06188655 C-18.64594132 103.42102527 -18.64533783 99.78016328 -18.64414978 96.13929749 C-18.64103656 89.24029278 -18.6328233 82.34130385 -18.62280029 75.4423061 C-18.61163886 67.58995565 -18.60612863 59.73760447 -18.60110486 51.88524806 C-18.59064068 35.72817697 -18.57304142 19.57112174 -18.55078125 3.4140625 C-15.12966877 1.58549736 -12.50409484 1.05401071 -8.61328125 0.7890625 C-7.59363281 0.71429687 -6.57398438 0.63953125 -5.5234375 0.5625 C-2.61027299 0.4720667 -2.61027299 0.4720667 0 0 Z " fill="#FFFFFF" transform="translate(469.55078125,578.5859375)"/>
<path d="M0 0 C30.03 0 60.06 0 91 0 C91.495 9.405 91.495 9.405 92 19 C91 20 91 20 88.29820251 20.12025452 C87.09241043 20.11803391 85.88661835 20.11581329 84.64428711 20.11352539 C83.98089828 20.11367142 83.31750946 20.11381744 82.63401794 20.1139679 C80.43176044 20.11326881 78.22958655 20.10547665 76.02734375 20.09765625 C74.50419664 20.09579206 72.98104893 20.09436816 71.457901 20.09336853 C67.44162349 20.08954346 63.42538192 20.07971328 59.40911865 20.06866455 C54.59420261 20.0566555 49.77927456 20.05204814 44.96434784 20.04621124 C37.64287353 20.03650151 30.32147815 20.01734491 23 20 C23 32.21 23 44.42 23 57 C27.03089844 56.98839844 31.06179688 56.97679687 35.21484375 56.96484375 C38.42077859 56.95841672 41.62671163 56.95299253 44.83264923 56.94824982 C48.22137231 56.94296031 51.61007056 56.9358872 54.9987793 56.92456055 C58.88329777 56.91165733 62.76780597 56.90677076 66.65234375 56.90234375 C67.87211411 56.89718246 69.09188446 56.89202118 70.34861755 56.88670349 C72.03024742 56.88659019 72.03024742 56.88659019 73.74584961 56.88647461 C75.23476967 56.88314369 75.23476967 56.88314369 76.75376892 56.87974548 C79 57 79 57 80 58 C80 63.94 80 69.88 80 76 C61.19 76 42.38 76 23 76 C23 88.21 23 100.42 23 113 C45.77 112.67 68.54 112.34 92 112 C92.62964977 117.03719816 93.13770153 121.45214938 93.125 126.4375 C93.12886719 127.98244141 93.12886719 127.98244141 93.1328125 129.55859375 C93 132 93 132 92 133 C89.1749667 133.10053508 86.37434715 133.13615716 83.54882812 133.12939453 C82.66271347 133.13114685 81.77659882 133.13289917 80.8636322 133.13470459 C77.91948518 133.1391244 74.97539769 133.13618467 72.03125 133.1328125 C69.99483224 133.1334855 67.95841456 133.1344555 65.92199707 133.13571167 C61.64802284 133.13718882 57.37406947 133.13503355 53.10009766 133.13037109 C47.60841461 133.1246738 42.11678043 133.12795271 36.62509918 133.13394356 C32.41822946 133.13754872 28.21137141 133.13641079 24.00450134 133.13381577 C21.97899876 133.13314637 19.95349514 133.13397535 17.92799377 133.13629532 C15.1023577 133.1388211 12.27680193 133.1349823 9.45117188 133.12939453 C8.18254555 133.13243088 8.18254555 133.13243088 6.88829041 133.13552856 C1.11426241 133.11426241 1.11426241 133.11426241 0 132 C-0.09622036 130.29174312 -0.12187628 128.57947886 -0.12025452 126.86851501 C-0.12162918 125.75647202 -0.12300385 124.64442902 -0.12442017 123.49868774 C-0.12082489 122.26798553 -0.11722961 121.03728333 -0.11352539 119.76928711 C-0.11367142 118.48166977 -0.11381744 117.19405243 -0.1139679 115.86741638 C-0.11425586 112.3262524 -0.10835936 108.78512201 -0.10139394 105.24396586 C-0.09516017 101.54705012 -0.09455658 97.85013369 -0.09336853 94.1532135 C-0.09025528 87.14796101 -0.08204199 80.14272405 -0.07201904 73.13747841 C-0.05877239 63.67454396 -0.05335794 54.21160528 -0.04751682 44.7486639 C-0.03810209 29.83243096 -0.01818313 14.91623079 0 0 Z " fill="#FFFFFF" transform="translate(321,581)"/>
<path d="M0 0 C1.10226929 0.20459839 1.10226929 0.20459839 2.22680664 0.41333008 C12.69844287 2.46702216 20.76637198 6.1480082 28.5 13.75 C28.5 14.41 28.5 15.07 28.5 15.75 C29.16 15.75 29.82 15.75 30.5 15.75 C38.62337904 26.61379607 41.83287115 39.31321782 40.5 52.75 C37.98779695 66.33045999 31.50138643 77.09344144 20.0625 85.125 C1.80580804 96.28712254 -18.46609316 93.75 -39.5 93.75 C-39.5 62.73 -39.5 31.71 -39.5 -0.25 C-9.11637355 -1.69683935 -9.11637355 -1.69683935 0 0 Z " fill="#1D293D" transform="translate(223.5,600.25)"/>
<path d="M0 0 C7.59 0 15.18 0 23 0 C27.40051576 10.05832175 31.44826032 20.20610866 35.34909058 30.46740723 C42.66034516 49.68709728 50.28652808 68.7483767 58.35131836 87.66503906 C60.36292024 92.4008516 62.22316979 97.17094612 64 102 C66.26731351 98.59902974 67.69040478 95.09035995 69.1875 91.3125 C69.52644287 90.46147705 69.86538574 89.6104541 70.21459961 88.73364258 C74.28483789 78.41602116 78.13981414 68.01617612 82.0189209 57.62564087 C87.08524763 44.05521445 92.22775566 30.51602269 97.4375 17 C97.77041046 16.13627777 98.10332092 15.27255554 98.44631958 14.38265991 C100.29518388 9.58752196 102.1472019 4.79362232 104 0 C111.59 0 119.18 0 127 0 C126.13544362 4.32278191 124.91059274 8.0485726 123.26171875 12.08984375 C122.84694023 13.12148399 122.84694023 13.12148399 122.42378235 14.17396545 C121.51566674 16.43010384 120.60156101 18.68376461 119.6875 20.9375 C119.04837894 22.52260542 118.40971287 24.10789436 117.77148438 25.69335938 C116.47113051 28.9224795 115.16874939 32.15076992 113.86474609 35.37841797 C111.22640161 41.91225706 108.6136752 48.45626007 106 55 C105.02351895 57.44013676 104.04695525 59.88024045 103.0703125 62.3203125 C101.17346821 67.06072992 99.28101206 71.80287665 97.39172363 76.54631042 C91.73727494 90.74237975 86.07999704 104.9373863 80.25 119.0625 C79.84378418 120.05556152 79.43756836 121.04862305 79.01904297 122.07177734 C78.46047607 123.4148999 78.46047607 123.4148999 77.890625 124.78515625 C77.57125977 125.55738525 77.25189453 126.32961426 76.92285156 127.12524414 C76 129 76 129 74 131 C72.06054688 131.3347168 72.06054688 131.3347168 69.71875 131.44921875 C68.87699219 131.49240234 68.03523437 131.53558594 67.16796875 131.58007812 C66.28753906 131.61552734 65.40710938 131.65097656 64.5 131.6875 C63.61957031 131.73455078 62.73914063 131.78160156 61.83203125 131.83007812 C55.27287946 132.13643973 55.27287946 132.13643973 53 131 C51.79640447 128.24407486 50.6933522 125.49607144 49.625 122.6875 C46.42750901 114.49064563 43.05763661 106.38670055 39.5625 98.3125 C32.65496356 82.30109338 25.98269951 66.19380627 19.33312988 50.07383728 C17.06602654 44.57803593 14.79158067 39.08534644 12.5116272 33.59486389 C11.00920357 29.97411615 9.51131322 26.35150514 8.01452637 22.72842407 C7.30007593 21.00143063 6.58386577 19.27516407 5.86584473 17.5496521 C4.87307011 15.16271332 3.8869072 12.77314756 2.90234375 10.3828125 C2.60635788 9.67543442 2.31037201 8.96805634 2.00541687 8.23924255 C0.81243606 5.32614464 0 3.18118966 0 0 Z " fill="#FEFEFE" transform="translate(600,581)"/>
<path d="M0 0 C2.99045491 -0.26050502 5.39445647 -0.30088512 8.32910156 0.35205078 C11.36278354 2.91670831 13.060149 6.02069571 14.95410156 9.47705078 C15.77273682 10.85050659 15.77273682 10.85050659 16.60791016 12.25170898 C17.70463267 14.09244004 18.78650281 15.94211028 19.85253906 17.80078125 C21.77732956 21.12651881 23.84872651 24.32509423 25.95410156 27.53955078 C26.64890625 28.62365234 27.34371094 29.70775391 28.05957031 30.82470703 C29.78074801 33.5061452 31.51571329 36.17834208 33.25488281 38.84814453 C33.75487793 39.61682861 34.25487305 40.3855127 34.77001953 41.17749023 C35.74517277 42.67585375 36.72198 44.17314254 37.70068359 45.66918945 C38.14395996 46.35086182 38.58723633 47.03253418 39.04394531 47.73486328 C39.43702881 48.3370166 39.8301123 48.93916992 40.23510742 49.55957031 C42.13764536 52.67682841 43.32910156 54.6333042 43.32910156 58.35205078 C43.98910156 58.35205078 44.64910156 58.35205078 45.32910156 58.35205078 C45.43867187 57.79259766 45.54824219 57.23314453 45.66113281 56.65673828 C48.47204707 46.9582622 56.33362759 37.43742932 61.78857422 29.02197266 C64.88603373 24.24261625 67.8744979 19.44852024 70.66894531 14.48486328 C78.38083153 1.09457327 78.38083153 1.09457327 83.68066406 -0.92529297 C87.13684548 -0.96171643 89.98132381 -0.47856914 93.32910156 0.35205078 C95.26430187 0.54358089 97.20194389 0.71272326 99.14160156 0.85205078 C100.53822985 1.0119192 101.93445207 1.17575197 103.32910156 1.35205078 C98.48319891 10.81006253 92.76482686 19.67190655 87.05908203 28.62451172 C83.43175285 34.34346764 79.86133919 40.09830166 76.28442383 45.84887695 C75.71393311 46.76386963 75.14344238 47.6788623 74.55566406 48.62158203 C73.94062012 49.63929688 73.32557617 50.65701172 72.69189453 51.70556641 C70.88256943 54.6065611 68.86588931 57.2884798 66.78271484 59.99853516 C55.54448494 75.17711388 54.41396626 87.70673589 54.95410156 106.22705078 C54.97617456 108.77648228 54.99183619 111.32597762 55.00097656 113.87548828 C55.0367203 120.03757628 55.1582282 126.19229011 55.32910156 132.35205078 C48.06910156 132.35205078 40.80910156 132.35205078 33.32910156 132.35205078 C33.34593994 130.75925293 33.36277832 129.16645508 33.38012695 127.52539062 C33.4311537 121.55739544 33.42227057 115.59067371 33.39624023 109.62255859 C33.3931776 107.05058735 33.40588344 104.47854308 33.43530273 101.90673828 C33.60190781 86.3003864 33.64991112 75.49021362 23.32910156 63.35205078 C21.94307078 61.2582149 20.5881484 59.14342232 19.26660156 57.00830078 C18.29654175 55.49175903 18.29654175 55.49175903 17.30688477 53.94458008 C16.65421631 52.92404541 16.00154785 51.90351074 15.32910156 50.85205078 C5.19146008 34.97367486 5.19146008 34.97367486 -5.06542969 19.17236328 C-5.66073486 18.26268799 -6.25604004 17.3530127 -6.86938477 16.41577148 C-8.04990328 14.61291701 -9.23323465 12.81190055 -10.41967773 11.01293945 C-10.95633057 10.192854 -11.4929834 9.37276855 -12.04589844 8.52783203 C-12.52800781 7.7947583 -13.01011719 7.06168457 -13.50683594 6.30639648 C-14.67089844 4.35205078 -14.67089844 4.35205078 -15.67089844 1.35205078 C-13.73390471 1.17959983 -11.79625836 1.01447909 -9.85839844 0.85205078 C-8.23998047 0.71283203 -8.23998047 0.71283203 -6.58886719 0.57080078 C-4.38778003 0.44790858 -2.1856107 0.28808507 0 0 Z " fill="#FFFFFF" transform="translate(766.6708984375,580.64794921875)"/>
<path d="M0 0 C5.1380655 5.76843001 8.12494341 13.1398527 7.6875 20.89453125 C6.4342029 28.54561163 3.20911536 35.5180003 -3.1171875 40.2421875 C-9.842341 44.2686206 -16.62327944 44.72682081 -24.3125 43.89453125 C-30.86038499 41.79920805 -35.58604025 38.65360541 -39.3125 32.89453125 C-42.99021274 25.66592346 -43.93162598 17.32643777 -41.5859375 9.45703125 C-38.43064834 2.68470329 -33.16954057 -2.20772357 -26.3125 -5.10546875 C-17.31512409 -7.24043931 -7.19379104 -6.15968358 0 0 Z " fill="#FFFFFF" transform="translate(616.3125,772.10546875)"/>
<path d="M0 0 C3.58060475 1.79030237 5.27652681 3.03913178 7.99902344 5.80371094 C8.77372986 6.5850238 9.54843628 7.36633667 10.34661865 8.17132568 C11.17582825 9.01713196 12.00503784 9.86293823 12.859375 10.734375 C13.72258362 11.60515686 14.58579224 12.47593872 15.47515869 13.37310791 C19.16647041 17.09707505 22.84597938 20.83262416 26.52636719 24.56738281 C29.21652498 27.29388117 31.9127896 30.0142359 34.609375 32.734375 C35.84104401 33.99093903 35.84104401 33.99093903 37.09759521 35.27288818 C41.35164538 39.56263454 45.58799676 43.40214311 50.58013916 46.81793213 C51.04869324 47.20801453 51.51724731 47.59809692 52 48 C52 48.66 52 49.32 52 50 C46.12320098 51.02128378 40.42945557 51.13022108 34.47265625 51.09765625 C33.15630188 51.09614563 33.15630188 51.09614563 31.81335449 51.09460449 C28.5630562 51.08940761 25.31277666 51.07544657 22.0625 51.0625 C14.781875 51.041875 7.50125 51.02125 0 51 C0 34.17 0 17.34 0 0 Z " fill="#1D293D" transform="translate(459,456)"/>
<path d="M0 0 C24 0 24 0 32 3 C36.45275933 7.56693264 37.3553924 11.5379689 37.28515625 17.71875 C36.6162344 23.07012481 32.65572032 26.39804027 29 30 C29.63808594 31.04800781 30.27617188 32.09601562 30.93359375 33.17578125 C31.76838473 34.55459332 32.60301161 35.93350477 33.4375 37.3125 C33.85837891 38.00279297 34.27925781 38.69308594 34.71289062 39.40429688 C35.11572266 40.07138672 35.51855469 40.73847656 35.93359375 41.42578125 C36.30540771 42.03848877 36.67722168 42.65119629 37.06030273 43.2824707 C38 45 38 45 39 48 C35.37 48 31.74 48 28 48 C26.66161267 45.54429825 25.32913768 43.08570084 24 40.625 C23.6184375 39.92632813 23.236875 39.22765625 22.84375 38.5078125 C20 33.2265625 20 33.2265625 20 31 C16.37 31 12.74 31 9 31 C9.33 36.61 9.66 42.22 10 48 C6.7 48 3.4 48 0 48 C0 32.16 0 16.32 0 0 Z " fill="#FFFFFF" transform="translate(644,767)"/>
<path d="M0 0 C23 0 23 0 31 3 C34.74522126 6.84125258 36.14109862 10.05698273 36.25 15.375 C36.14939278 22.28336278 32.75112407 25.30330779 28 30 C28.30292969 30.50974365 28.60585938 31.0194873 28.91796875 31.54467773 C30.28090053 33.84095568 31.64049064 36.13919431 33 38.4375 C33.47695313 39.23994141 33.95390625 40.04238281 34.4453125 40.86914062 C34.89648438 41.63291016 35.34765625 42.39667969 35.8125 43.18359375 C36.23144531 43.89056396 36.65039062 44.59753418 37.08203125 45.32592773 C38 47 38 47 38 48 C34.37 48 30.74 48 27 48 C26.236875 46.453125 25.47375 44.90625 24.6875 43.3125 C23.26926472 40.4639422 21.83408457 37.72538136 20.1875 35 C19 33 19 33 19 31 C15.37 31 11.74 31 8 31 C8.33 36.61 8.66 42.22 9 48 C6.03 48 3.06 48 0 48 C0 32.16 0 16.32 0 0 Z " fill="#FFFFFF" transform="translate(485,767)"/>
<path d="M0 0 C1.97166808 1.91604108 3.34090473 3.52578075 4.875 5.75 C5.51236084 6.62603882 5.51236084 6.62603882 6.16259766 7.51977539 C7.4672994 9.33001857 8.73840089 11.15950882 10 13 C10.38542969 13.55993652 10.77085937 14.11987305 11.16796875 14.69677734 C13.49545952 18.09920135 15.75435075 21.54326916 18 25 C19.98 27.97 19.98 27.97 22 31 C22.33 21.1 22.66 11.2 23 1 C27.455 0.505 27.455 0.505 32 0 C32 16.17 32 32.34 32 49 C23 48 23 48 21.03540039 46.56396484 C20.64344482 45.95246582 20.25148926 45.3409668 19.84765625 44.7109375 C19.38584961 44.02314209 18.92404297 43.33534668 18.44824219 42.62670898 C17.99094727 41.88364502 17.53365234 41.14058105 17.0625 40.375 C16.56524414 39.61968994 16.06798828 38.86437988 15.55566406 38.08618164 C14.52724121 36.51952032 13.51084525 34.944901 12.50634766 33.36279297 C10.62417682 30.41049972 8.67078543 27.50985321 6.7097168 24.60961914 C4.78895422 21.75144475 2.89727761 18.87381756 1 16 C1 26.89 1 37.78 1 49 C-1.97 48.67 -4.94 48.34 -8 48 C-8 32.49 -8 16.98 -8 1 C-5.0854768 -0.4572616 -3.23045815 -0.42861116 0 0 Z " fill="#FFFFFF" transform="translate(322,767)"/>
<path d="M0 0 C10.56 0 21.12 0 32 0 C32 2.64 32 5.28 32 8 C24.41 8 16.82 8 9 8 C9 12.29 9 16.58 9 21 C15.27 21 21.54 21 28 21 C28 23.64 28 26.28 28 29 C22.06 29 16.12 29 10 29 C9.67 32.96 9.34 36.92 9 41 C16.92 40.67 24.84 40.34 33 40 C33 42.64 33 45.28 33 48 C22.11 48 11.22 48 0 48 C0 32.16 0 16.32 0 0 Z " fill="#FFFFFF" transform="translate(430,767)"/>
<path d="M0 0 C2.1875 1.09765625 2.1875 1.09765625 5.3125 3.09765625 C5.3125 6.86453489 5.07712683 8.0095593 3.3125 11.09765625 C-1.6875 9.09765625 -1.6875 9.09765625 -3.9375 7.91015625 C-7.96249569 6.72095298 -11.59444198 7.43777326 -15.6875 8.09765625 C-16.3475 9.74765625 -17.0075 11.39765625 -17.6875 13.09765625 C-14.43892973 16.99924701 -10.99341562 18.25299297 -6.25 19.59765625 C-1.32348119 21.00246496 2.51609238 22.52122739 6.3125 26.09765625 C8.2916404 30.05593704 7.97406177 34.93177885 6.69921875 39.10546875 C4.62282394 43.33143528 1.88434784 45.59539356 -2.421875 47.4375 C-11.33787937 50.0354392 -18.71339183 47.08471033 -26.6875 43.09765625 C-26.6875 42.43765625 -26.6875 41.77765625 -26.6875 41.09765625 C-27.3475 41.09765625 -28.0075 41.09765625 -28.6875 41.09765625 C-27.48368552 38.60404054 -26.23321278 36.41622542 -24.6875 34.09765625 C-21.93503081 35.15007094 -19.43293671 36.24473726 -16.875 37.72265625 C-12.74115554 39.50588327 -10.16748752 39.46486834 -5.6875 39.09765625 C-4.6975 38.43765625 -3.7075 37.77765625 -2.6875 37.09765625 C-2.4372843 34.01399754 -2.4372843 34.01399754 -2.6875 31.09765625 C-3.29335938 30.8553125 -3.89921875 30.61296875 -4.5234375 30.36328125 C-6.28798904 29.65746063 -8.0508974 28.94752378 -9.8125 28.234375 C-11.67557875 27.49775011 -13.55043489 26.78999054 -15.4375 26.1171875 C-24.41795804 22.84306217 -24.41795804 22.84306217 -26.6875 18.09765625 C-27.47768566 13.07913667 -27.24383142 9.27451117 -25.0625 4.66015625 C-18.68737115 -2.21827225 -8.63797136 -2.90024911 0 0 Z " fill="#FFFFFF" transform="translate(728.6875,767.90234375)"/>
<path d="M0 0 C4.37317227 2.18658613 7.43901378 4.82654097 10 9 C11.56338844 15.25355376 11.0662397 20.26930373 8 26 C4.86834033 30.04576573 1.57100821 32.24040823 -3.5 33.0625 C-7.98010098 33.2605997 -11.10787967 32.3203025 -15 30 C-19.41728646 25.69715102 -21.16773977 22.37564346 -21.3125 16.25 C-21.26838585 10.98781179 -20.67835982 7.98488981 -17 4 C-11.92877243 -0.45653332 -6.50337755 -0.73048859 0 0 Z " fill="#1D293D" transform="translate(604,775)"/>
<path d="M0 0 C13.2 0 26.4 0 40 0 C40 2.64 40 5.28 40 8 C34.72 8 29.44 8 24 8 C24 21.53 24 35.06 24 49 C21.36 48.67 18.72 48.34 16 48 C16 34.8 16 21.6 16 8 C10.72 8 5.44 8 0 8 C0 5.36 0 2.72 0 0 Z " fill="#FFFFFF" transform="translate(372,767)"/>
<path d="M0 0 C2.97 0 5.94 0 9 0 C9 15.84 9 31.68 9 48 C6.03 48 3.06 48 0 48 C0 32.16 0 16.32 0 0 Z " fill="#FFFFFF" transform="translate(544,767)"/>
<path d="M0 0 C0 15.84 0 31.68 0 48 C-2.97 48 -5.94 48 -9 48 C-9 32.49 -9 16.98 -9 1 C-5 0 -5 0 0 0 Z " fill="#FFFFFF" transform="translate(289,767)"/>
<path d="M0 0 C2.24973447 -0.054138 4.49984383 -0.09285491 6.75 -0.125 C8.00296875 -0.14820313 9.2559375 -0.17140625 10.546875 -0.1953125 C13.73960816 -0.01472805 15.41031936 0.20230907 18 2 C19.52491998 5.04983996 19.23562548 7.6423369 19 11 C17.54192685 13.30222077 16.50060355 13.83313215 13.9375 14.6875 C9.63782938 15.14491177 5.3180653 15.27187819 1 15 C0 14 0 14 -0.09765625 10.83984375 C-0.08025391 8.90818359 -0.08025391 8.90818359 -0.0625 6.9375 C-0.05347656 5.64714844 -0.04445313 4.35679687 -0.03515625 3.02734375 C-0.02355469 2.02832031 -0.01195312 1.02929688 0 0 Z " fill="#1D293D" transform="translate(653,775)"/>
<path d="M0 0 C14.72603431 -0.27270434 14.72603431 -0.27270434 18 2 C19.52491998 5.04983996 19.23562548 7.6423369 19 11 C17.99609375 12.7109375 17.99609375 12.7109375 16 14 C13.18872957 14.21714241 10.6116655 14.28284276 7.8125 14.1875 C6.68811523 14.16719727 6.68811523 14.16719727 5.54101562 14.14648438 C3.69370233 14.11118539 1.84675934 14.05737917 0 14 C0 9.38 0 4.76 0 0 Z " fill="#1D293D" transform="translate(493,775)"/>
</svg>
